<svg width="1440" height="710" viewBox="0 0 1440 710" fill="none" xmlns="http://www.w3.org/2000/svg">
<path d="M-0.993042 0H1444V480H-0.993042V0Z" fill="url(#paint0_linear_0_182)"/>
<mask id="mask0_0_182" style="mask-type:alpha" maskUnits="userSpaceOnUse" x="-3" y="0" width="1445" height="710">
<path d="M-3 0H1441.99V710H-3V0Z" fill="#DD2679"/>
</mask>
<g mask="url(#mask0_0_182)">
<path d="M-3 0H1441.99V362.011L-3 753.339V0Z" fill="url(#paint1_radial_0_182)"/>
<g filter="url(#filter0_f_0_182)">
<path d="M-155.527 1010.83L1464.07 735.495V234.544C1371.09 292.329 1144.2 422.687 980.44 481.833C775.741 555.765 465.318 410.45 314.606 379.858C194.036 355.384 -49.0536 449.541 -155.527 499.678V1010.83Z" fill="url(#paint2_linear_0_182)"/>
</g>
</g>
<defs>
<filter id="filter0_f_0_182" x="-235.527" y="154.544" width="1779.6" height="936.284" filterUnits="userSpaceOnUse" color-interpolation-filters="sRGB">
<feFlood flood-opacity="0" result="BackgroundImageFix"/>
<feBlend mode="normal" in="SourceGraphic" in2="BackgroundImageFix" result="shape"/>
<feGaussianBlur stdDeviation="40" result="effect1_foregroundBlur_0_182"/>
</filter>
<linearGradient id="paint0_linear_0_182" x1="1444" y1="240.431" x2="220.031" y2="559.831" gradientUnits="userSpaceOnUse">
<stop stop-color="#E73635"/>
<stop offset="1" stop-color="#6AD5FF"/>
</linearGradient>
<radialGradient id="paint1_radial_0_182" cx="0" cy="0" r="1" gradientUnits="userSpaceOnUse" gradientTransform="translate(1418.91 149.776) rotate(-173.858) scale(1399.84 4313.8)">
<stop stop-color="#8FB3FF"/>
<stop offset="0.277176" stop-color="#9D6BE8"/>
<stop offset="0.542906" stop-color="#DE2778"/>
<stop offset="1" stop-color="#B03DE2"/>
</radialGradient>
<linearGradient id="paint2_linear_0_182" x1="1410.08" y1="466.537" x2="-226.162" y2="783.358" gradientUnits="userSpaceOnUse">
<stop offset="0.0129279" stop-color="#E37777"/>
<stop offset="0.380614" stop-color="#F2554C"/>
<stop offset="0.61473" stop-color="#FEC458"/>
<stop offset="0.842802" stop-color="#FEC957"/>
<stop offset="1" stop-color="#DB788D"/>
</linearGradient>
</defs>
</svg>
