<svg width="138" height="24" viewBox="0 0 138 24" fill="none" xmlns="http://www.w3.org/2000/svg">
<path d="M120.642 0.694458C120.145 0.694458 119.743 1.05212 119.743 1.49315V7.09485H136.391L128.809 0.694975L120.642 0.694458Z" fill="#B3B7BC"/>
<path d="M137.001 8.78879C137.001 8.34672 136.602 7.9906 136.102 7.9906H129.801V22.7881L136.998 16.0465L137.001 8.78879Z" fill="#B3B7BC"/>
<path d="M127.891 23.3248C128.387 23.3248 128.789 22.9666 128.789 22.5245V16.9249H112.14L119.723 23.3238L127.891 23.3248Z" fill="#B3B7BC"/>
<path d="M111.532 15.2304C111.532 15.672 111.934 16.0317 112.432 16.0317H118.732V1.23315L111.533 7.97267L111.532 15.2304Z" fill="#B3B7BC"/>
<path d="M35.2227 3.39542V10.2291H24.5111V3.39542L20.6097 3.39233V20.623H24.5111V13.2206H35.2227V20.623H39.1304V3.39542H35.2227Z" fill="#B3B7BC"/>
<path d="M87.125 3.39575V20.6192H104.241L102.073 17.587H91.0374V13.221H101.724V10.3005H91.0374V6.3569H102.055L104.178 3.39575H87.125Z" fill="#B3B7BC"/>
<path d="M6.10796 3.39172C2.04971 3.39172 0 5.58454 0 8.77521V15.207C0 18.8994 2.64143 20.6234 6.08769 20.6234L18.3279 20.6224L16.0588 17.4729H6.84387C4.88624 17.4729 4.03337 16.844 4.03337 14.8967V9.06135C4.03337 7.17885 4.75134 6.44448 6.89598 6.44448H16.1549L18.3337 3.39172H6.10796Z" fill="#B3B7BC"/>
<path d="M70.0017 3.38766C67.6579 3.38766 65.2556 4.63974 65.2556 7.86026V8.68777C65.2556 12.0452 67.567 13.3261 69.8795 13.3348H77.9966C78.8397 13.3348 79.5246 13.4594 79.5246 14.7259L79.5235 16.1889C79.502 17.3268 78.8634 17.5872 77.9677 17.5872H67.2891L65.1016 20.6193H78.219C81.3821 20.6193 83.5296 19.2206 83.5296 15.9898V14.8025C83.5296 11.6788 81.5344 10.2028 78.4407 10.2028H70.6901C69.8309 10.2028 69.2322 9.9944 69.2322 8.86326V7.6719C69.2322 6.70853 69.6427 6.35704 70.6438 6.35704L80.8135 6.35344L82.939 3.38354L70.0017 3.38766Z" fill="#B3B7BC"/>
<path d="M50.4651 3.39624L41.2733 20.6228H45.6176L47.4079 17.0652H57.3964L59.1808 20.6228H63.5442L54.3311 3.39624H50.4651ZM52.3926 6.97288L55.9245 14.1328H48.8832L52.3926 6.97288Z" fill="#B3B7BC"/>
</svg>
