<svg width="122" height="22" viewBox="0 0 122 22" fill="none" xmlns="http://www.w3.org/2000/svg">
<path fill-rule="evenodd" clip-rule="evenodd" d="M18.7026 5.61811C18.7026 8.39906 16.1646 10.6535 13.0336 10.6535C9.90254 10.6535 7.36449 8.39906 7.36449 5.61811C7.36449 2.83773 9.90254 0.583252 13.0336 0.583252C16.1646 0.583252 18.7026 2.83773 18.7026 5.61811ZM5.66914 11.9124C2.53818 11.9124 0 14.1662 0 16.9472C0 19.7279 2.53818 21.9821 5.66914 21.9821C8.80022 21.9821 11.3385 19.7279 11.3385 16.9472C11.3385 14.1662 8.80022 11.9124 5.66914 11.9124ZM20.398 11.912C17.267 11.912 14.7289 14.1662 14.7289 16.9472C14.7289 19.7279 17.267 21.9821 20.398 21.9821C23.5289 21.9821 26.0671 19.7279 26.0671 16.9472C26.0671 14.1662 23.5289 11.912 20.398 11.912Z" fill="#B3B7BC"/>
<path fill-rule="evenodd" clip-rule="evenodd" d="M46.0137 16.8891C46.0876 17.6361 46.7603 18.5869 47.9258 18.5869H48.6077C48.872 18.5869 49.0887 18.3944 49.0887 18.1595V4.83989H49.0857C49.0719 4.6155 48.8632 4.43578 48.6077 4.43578H46.4947C46.2392 4.43578 46.0305 4.6155 46.0163 4.83989H46.0137V5.92218C44.7191 4.50489 42.678 3.91663 40.6311 3.91663C35.9786 3.91663 32.207 7.26888 32.207 11.4044C32.207 15.5401 35.9786 18.8924 40.6311 18.8924V18.8928C42.678 18.8928 44.9086 18.187 46.0135 16.8874L46.0137 16.8891ZM40.6394 16.2718C37.6804 16.2718 35.2816 14.0928 35.2816 11.4044C35.2816 8.71641 37.6804 6.53727 40.6394 6.53727C43.5983 6.53727 45.9968 8.71641 45.9968 11.4044C45.9968 14.0928 43.5983 16.2718 40.6394 16.2718Z" fill="#B3B7BC"/>
<path fill-rule="evenodd" clip-rule="evenodd" d="M80.4395 16.8888C80.5134 17.6357 81.1861 18.5865 82.3515 18.5865H83.0334C83.2978 18.5865 83.5142 18.3941 83.5142 18.1591V4.83952H83.5115C83.4977 4.61513 83.2887 4.43541 83.0334 4.43541H80.9204C80.6649 4.43541 80.4562 4.61513 80.4419 4.83952H80.4395V5.92182C79.1447 4.50452 77.1036 3.91626 75.0567 3.91626C70.4042 3.91626 66.6328 7.26852 66.6328 11.404C66.6328 15.5397 70.4042 18.8921 75.0567 18.8921V18.8924C77.1036 18.8924 79.3344 18.1866 80.4392 16.8871L80.4395 16.8888ZM75.0649 16.2714C72.1062 16.2714 69.7072 14.0924 69.7072 11.404C69.7072 8.71605 72.1062 6.53691 75.0649 6.53691C78.024 6.53691 80.4224 8.71605 80.4224 11.404C80.4224 14.0924 78.024 16.2714 75.0649 16.2714Z" fill="#B3B7BC"/>
<path fill-rule="evenodd" clip-rule="evenodd" d="M118.923 16.8888C118.997 17.6357 119.67 18.5865 120.835 18.5865H121.517C121.782 18.5865 121.999 18.3941 121.999 18.1591V4.83952H121.995C121.982 4.61513 121.773 4.43541 121.517 4.43541H119.404C119.149 4.43541 118.94 4.61513 118.926 4.83952H118.923V5.92182C117.629 4.50452 115.588 3.91626 113.541 3.91626C108.888 3.91626 105.117 7.26852 105.117 11.404C105.117 15.5397 108.888 18.8921 113.541 18.8921V18.8924C115.588 18.8924 117.818 18.1866 118.923 16.8871L118.923 16.8888ZM113.549 16.2714C110.59 16.2714 108.191 14.0924 108.191 11.404C108.191 8.71605 110.59 6.53691 113.549 6.53691C116.508 6.53691 118.907 8.71605 118.907 11.404C118.907 14.0924 116.508 16.2714 113.549 16.2714Z" fill="#B3B7BC"/>
<path fill-rule="evenodd" clip-rule="evenodd" d="M102.444 17.3477L102.443 10.4554H102.443C102.443 6.57021 99.6856 3.94922 95.2882 3.94922C93.1891 3.94922 91.4683 5.0281 90.8606 5.95489C90.7292 5.23022 90.2963 4.46848 88.954 4.46848H88.2698C88.0052 4.46848 87.7891 4.66105 87.7891 4.89601V16.923V16.9248V18.2167H87.7918C87.8056 18.4408 88.0145 18.6207 88.2701 18.6207H90.383C90.4154 18.6207 90.4471 18.6173 90.4778 18.612C90.4918 18.6096 90.5048 18.6047 90.5184 18.6013C90.5341 18.597 90.5504 18.5937 90.5654 18.5882C90.5842 18.5813 90.6012 18.572 90.6187 18.5633C90.6273 18.5587 90.6363 18.5554 90.6446 18.5505C90.6657 18.5384 90.685 18.5239 90.7037 18.509C90.7067 18.5062 90.7104 18.5044 90.7135 18.5019C90.7345 18.4839 90.7537 18.464 90.7707 18.4433L90.7708 18.4429C90.8237 18.3784 90.8559 18.3006 90.8611 18.2167H90.8638V10.3485C90.8638 8.26191 92.7672 6.57021 95.115 6.57021C97.4626 6.57021 99.366 8.26191 99.366 10.3485L99.3679 16.9253L99.3684 16.923C99.3684 16.9288 99.3694 16.9348 99.3694 16.9411V18.2167H99.3723C99.3862 18.4408 99.5949 18.6207 99.8504 18.6207H101.964C101.996 18.6207 102.028 18.6173 102.058 18.612C102.071 18.6099 102.082 18.6055 102.095 18.6024C102.112 18.598 102.13 18.5941 102.146 18.5882C102.163 18.5818 102.179 18.573 102.196 18.5648C102.206 18.5598 102.216 18.5562 102.226 18.5505C102.245 18.5391 102.263 18.5253 102.28 18.5117C102.285 18.5081 102.29 18.5053 102.294 18.5016C102.314 18.4844 102.332 18.4659 102.348 18.4465C102.35 18.445 102.351 18.4438 102.352 18.4424C102.404 18.3784 102.436 18.3012 102.441 18.2179C102.441 18.2173 102.442 18.2167 102.442 18.2167H102.445V17.3479L102.444 17.3477Z" fill="#B3B7BC"/>
<path fill-rule="evenodd" clip-rule="evenodd" d="M54.1356 14.9813C55.5462 15.8499 57.0859 16.2718 58.5655 16.2718C59.9751 16.2718 61.4324 15.6222 61.4324 14.4917C61.4324 12.9824 58.2569 12.7475 56.2619 12.1448C54.2664 11.5421 52.5477 10.2962 52.5477 8.27863C52.5477 5.19135 55.6426 3.91626 58.5313 3.91626C60.3615 3.91626 62.2499 4.45269 63.4742 5.22113C63.8958 5.50509 63.639 5.8311 63.639 5.8311L62.4704 7.31467C62.339 7.48177 62.1093 7.62614 61.7796 7.44528C61.45 7.26454 60.2936 6.53702 58.5313 6.53702C56.7688 6.53702 55.7072 7.26045 55.7072 8.15711C55.7072 9.23236 57.087 9.57054 58.7031 9.93702C61.5195 10.6118 64.5918 11.4229 64.5918 14.4917C64.5918 17.2118 61.7293 18.8929 58.5655 18.8929C56.168 18.8929 54.1268 18.2854 52.4148 17.1688C52.0581 16.8515 52.3073 16.557 52.3073 16.557L53.4702 15.0809C53.7068 14.8049 54.0051 14.9012 54.1356 14.9813Z" fill="#B3B7BC"/>
</svg>
