<svg width="99" height="29" viewBox="0 0 99 29" fill="none" xmlns="http://www.w3.org/2000/svg">
<path d="M41.9381 15.1168C41.9381 19.2419 38.3072 22.2817 33.8513 22.2817C29.3955 22.2817 25.7646 19.2419 25.7646 15.1168C25.7646 10.9626 29.3955 7.9519 33.8513 7.9519C38.3072 7.9519 41.9381 10.9626 41.9381 15.1168ZM38.3981 15.1168C38.3981 12.539 36.2937 10.7752 33.8513 10.7752C31.409 10.7752 29.3046 12.539 29.3046 15.1168C29.3046 17.6688 31.409 19.4584 33.8513 19.4584C36.2937 19.4584 38.3981 17.6655 38.3981 15.1168Z" fill="#B3B7BC"/>
<path d="M59.3837 15.1168C59.3837 19.2419 55.7528 22.2817 51.2969 22.2817C46.8411 22.2817 43.2102 19.2419 43.2102 15.1168C43.2102 10.9658 46.8411 7.9519 51.2969 7.9519C55.7528 7.9519 59.3837 10.9626 59.3837 15.1168ZM55.8437 15.1168C55.8437 12.539 53.7393 10.7752 51.2969 10.7752C48.8546 10.7752 46.7502 12.539 46.7502 15.1168C46.7502 17.6688 48.8546 19.4584 51.2969 19.4584C53.7393 19.4584 55.8437 17.6655 55.8437 15.1168Z" fill="#B3B7BC"/>
<path d="M76.1022 8.38477V21.248C76.1022 26.5393 72.5913 28.7004 68.4408 28.7004C64.5337 28.7004 62.1822 26.3778 61.2954 24.4783L64.3774 23.338C64.9262 24.5042 66.271 25.8803 68.4371 25.8803C71.0939 25.8803 72.7403 24.4234 72.7403 21.6809V20.6504H72.6168C71.8245 21.5193 70.298 22.2785 68.3717 22.2785C64.3411 22.2785 60.6484 19.158 60.6484 15.1426C60.6484 11.0983 64.3411 7.9519 68.3717 7.9519C70.2943 7.9519 71.8208 8.71103 72.6168 9.55415H72.7403V8.388H76.1022V8.38477ZM72.9911 15.1426C72.9911 12.6197 71.0976 10.7752 68.6879 10.7752C66.2455 10.7752 64.1993 12.6197 64.1993 15.1426C64.1993 17.6397 66.2455 19.4584 68.6879 19.4584C71.0976 19.4584 72.9911 17.6397 72.9911 15.1426Z" fill="#B3B7BC"/>
<path d="M81.645 0.845337V21.8426H78.1922V0.845337H81.645Z" fill="#B3B7BC"/>
<path d="M95.1011 17.4755L97.8488 19.1036C96.962 20.2697 94.8249 22.279 91.1323 22.279C86.5529 22.279 83.1328 19.1327 83.1328 15.1141C83.1328 10.8533 86.5819 7.94922 90.7361 7.94922C94.9194 7.94922 96.9656 10.9082 97.6344 12.5072L98.0015 13.3213L87.2252 17.2881C88.0503 18.7256 89.3332 19.4589 91.1323 19.4589C92.935 19.4589 94.1853 18.6707 95.1011 17.4755ZM86.6437 14.8977L93.8473 12.2391C93.4511 11.3443 92.259 10.7209 90.8561 10.7209C89.057 10.7209 86.5529 12.1325 86.6437 14.8977Z" fill="#B3B7BC"/>
<path d="M12.6952 13.2531V10.2133H24.2202C24.3328 10.7431 24.391 11.3698 24.391 12.0482C24.391 14.3288 23.6895 17.1489 21.4289 19.1582C19.23 21.1933 16.4206 22.2787 12.6989 22.2787C5.80063 22.2787 0 17.2846 0 11.1534C0 5.02218 5.80063 0.0280762 12.6989 0.0280762C16.5151 0.0280762 19.2337 1.35898 21.2762 3.09367L18.8629 5.23862C17.3982 4.01755 15.4138 3.06783 12.6952 3.06783C7.65785 3.06783 3.71807 6.67612 3.71807 11.1534C3.71807 15.6306 7.65785 19.2389 12.6952 19.2389C15.9626 19.2389 17.8235 18.0728 19.0156 17.0132C19.9824 16.1539 20.6184 14.9264 20.8692 13.2499L12.6952 13.2531Z" fill="#B3B7BC"/>
</svg>
