<svg width="120" height="19" viewBox="0 0 120 19" fill="none" xmlns="http://www.w3.org/2000/svg">
<path d="M11.874 9.42139C12.8285 9.48926 13.6303 9.82861 14.3175 10.4734C15.0048 11.1181 15.3484 12.0004 15.3484 13.1203C15.3484 14.4777 14.8521 15.5975 13.8212 16.4119C12.7903 17.2264 11.3395 17.6336 9.3923 17.6336H0V1.54855H9.35412C10.9959 1.54855 12.3322 1.95577 13.3248 2.73627C14.3175 3.5507 14.8139 4.60267 14.8139 5.92612C14.8139 6.94416 14.5084 7.72466 13.8594 8.33548C13.2103 8.94631 12.5612 9.25172 11.8358 9.31959L11.874 9.42139ZM4.46707 8.19974H8.36144C9.0105 8.19974 9.54502 8.03007 9.965 7.69072C10.3468 7.35138 10.5759 6.94416 10.5759 6.36727C10.5759 5.85825 10.385 5.48497 10.0032 5.17956C9.62138 4.87415 9.12504 4.73841 8.55234 4.73841H4.46707V8.19974ZM8.59052 14.4437C9.27776 14.4437 9.85046 14.274 10.2323 13.9686C10.6141 13.6632 10.805 13.2221 10.805 12.6452C10.805 12.1022 10.6141 11.695 10.1941 11.3896C9.81228 11.0842 9.27776 10.9145 8.66688 10.9145H4.46707V14.4437H8.59052ZM30.8113 17.6336H26.497V16.4798C25.4279 17.4978 24.0153 18.0069 22.3353 18.0069C20.7318 18.0069 19.4718 17.5318 18.5173 16.6155C17.5628 15.6993 17.0665 14.4777 17.0665 12.9845V5.58678H21.3427V12.1701C21.3427 12.8827 21.5717 13.4596 21.9917 13.9008C22.4117 14.3419 22.9844 14.5455 23.6717 14.5455C24.5498 14.5455 25.237 14.274 25.7334 13.7311C26.2297 13.1881 26.4588 12.3398 26.4588 11.186V5.58678H30.7731L30.8113 17.6336ZM44.1362 17.6336H32.6822V16.9209L38.0655 8.64089H32.8349V5.58678H44.0598V6.2994L38.6764 14.5795H44.098V17.6336H44.1362ZM57.4228 17.6336H46.007V16.9209L51.3522 8.64089H46.1215V5.58678H57.3465V6.2994L51.9631 14.5795H57.3847L57.4228 17.6336ZM63.8371 8.43729H71.664V11.8986H63.8371V17.6675H59.37V1.54855H72.3513V5.00989H63.8371V8.43729ZM103.315 12.6112H93.3885C93.6557 14.1044 94.9157 14.9527 96.7865 14.9527C98.2755 14.9527 99.7645 14.4437 100.872 13.6632L102.514 16.2083C100.986 17.3621 99.0391 18.0069 96.7865 18.0069C92.2431 18.0069 89.1505 15.5636 89.1505 11.6271C89.1505 9.76074 89.8377 8.23368 91.2122 7.04596C92.5867 5.85825 94.3048 5.24743 96.3284 5.24743C98.2755 5.24743 99.9173 5.82432 101.254 7.01203C102.59 8.19974 103.277 9.7268 103.315 11.6611V12.6112ZM94.5721 8.8445C94.0375 9.18385 93.6557 9.65893 93.4648 10.2358H99.0391C98.8482 9.625 98.5046 9.14991 98.0083 8.81057C97.5119 8.50515 96.9392 8.33548 96.3284 8.33548C95.6793 8.33548 95.1066 8.50516 94.5721 8.8445ZM87.5088 12.6112H77.5819C77.8492 14.1044 79.1091 14.9527 80.98 14.9527C82.469 14.9527 83.958 14.4437 85.0652 13.6632L86.707 16.2083C85.1798 17.3621 83.2326 18.0069 80.98 18.0069C76.4365 18.0069 73.3439 15.5636 73.3439 11.6271C73.3439 9.76074 74.0312 8.23368 75.4057 7.04596C76.7801 5.85825 78.4983 5.24743 80.5218 5.24743C82.469 5.24743 84.1107 5.82432 85.447 7.01203C86.7833 8.19974 87.4706 9.7268 87.5088 11.6611V12.6112ZM78.7655 8.8445C78.231 9.18385 77.8492 9.65893 77.6583 10.2358H83.2326C83.0417 9.625 82.6981 9.14991 82.2017 8.81057C81.7054 8.50515 81.1327 8.33548 80.5218 8.33548C79.8727 8.33548 79.3 8.50516 78.7655 8.8445ZM120 17.6336H115.686V16.6834C114.578 17.5657 113.204 18.0069 111.486 18.0069C109.653 18.0069 108.088 17.396 106.79 16.2083C105.492 15.0206 104.842 13.4935 104.842 11.6271C104.842 9.76074 105.492 8.23368 106.79 7.04596C108.088 5.85825 109.653 5.24743 111.486 5.24743C113.204 5.24743 114.617 5.68858 115.686 6.57088V0.36084H120V17.6336ZM114.731 13.8668C115.38 13.2899 115.724 12.5434 115.724 11.6271C115.724 10.7448 115.38 9.99828 114.731 9.38746C114.082 8.81057 113.28 8.50516 112.402 8.50516C111.448 8.50516 110.684 8.81057 110.073 9.38746C109.462 9.96434 109.157 10.7109 109.157 11.6271C109.157 12.5434 109.462 13.3239 110.073 13.9008C110.684 14.4777 111.448 14.7491 112.402 14.7491C113.28 14.7491 114.044 14.4437 114.731 13.8668Z" fill="#B3B7BC"/>
</svg>
