<svg width="133" height="29" viewBox="0 0 133 29" fill="none" xmlns="http://www.w3.org/2000/svg">
<path d="M0 6.02057C0 6.02057 3.3042 18.0771 3.83153 20.0341C4.44703 22.3182 5.55605 23.1589 8.75354 22.5919L10.8168 15.117C11.3397 13.2602 11.6904 11.9365 12.0266 10.0477H12.0857C12.3219 11.955 12.6582 13.2658 13.0885 15.1235C13.0885 15.1235 13.9284 18.5169 14.3585 20.2993C14.7898 22.081 15.9899 23.2039 19.1218 22.5926L24.038 6.02184H20.0688L18.3904 13.1862C17.9392 15.2716 17.5297 16.9011 17.214 18.8089H17.158C16.8711 16.9201 16.5062 15.3552 16.0474 13.3233L14.2999 6.02184H10.1643L8.29505 13.1394C7.76547 15.3022 7.27015 17.0487 6.95517 18.8918H6.89813C6.57556 17.1561 6.14593 14.9611 5.68069 12.8674C5.68069 12.8674 4.57011 7.7766 4.18045 6.02184L0.000386466 6.02231L0 6.02057ZM37.838 6.02057V22.5913H41.617V19.0726V6.01978H37.838V6.02057ZM91.0617 6.02057V18.2451C91.0617 19.9305 91.4179 21.1114 92.18 21.8328C92.8458 22.4637 93.9425 22.8723 95.2566 22.8723C96.3739 22.8723 97.4732 22.6836 97.9913 22.5117L97.9426 19.8821C97.5571 19.9665 97.1136 20.0341 96.507 20.0341C95.2197 20.0341 94.788 19.3 94.788 17.7866V13.1096H98.0792V9.93914H94.788V6.02061H91.0615L91.0617 6.02057ZM29.3928 9.86202C27.0442 9.86202 25.18 10.4492 24.1637 10.9721L24.9074 13.2398C25.8375 12.7177 27.3183 12.2854 28.7204 12.2854C31.0419 12.2801 31.4214 13.4543 31.4214 14.2074V14.3855C26.363 14.3787 23.1678 15.9374 23.1678 19.1145C23.1678 21.0543 24.7943 22.8722 27.6227 22.8722C29.3637 22.8722 30.8198 22.2539 31.6925 21.2632H31.7781C31.7781 21.2632 32.3559 23.4148 35.5396 22.592C35.3724 21.6965 35.318 20.7418 35.318 19.5918V15.1651C35.318 12.3436 33.9652 9.86207 29.3928 9.86207L29.3928 9.86202ZM51.9984 9.86202C49.6336 9.86202 48.5709 10.9291 47.9266 11.8345H47.8706V10.143H44.2642V22.5921H48.0633V15.2912C48.0633 14.949 48.1072 14.5871 48.2414 14.2722C48.5561 13.5371 49.3242 12.6773 50.5504 12.6773C52.0833 12.6773 52.8006 13.8313 52.8006 15.4968V22.592H56.5956V15.2028C56.5956 14.8761 56.6459 14.4825 56.7539 14.1936C57.0659 13.3575 57.8939 12.6772 59.0337 12.6772C60.5878 12.6772 61.3336 13.8111 61.3336 15.7709V22.592H65.1313V15.2599C65.1313 11.3931 62.9263 9.86208 60.4373 9.86208C59.3349 9.86208 58.4649 10.1082 57.6782 10.5382C57.017 10.8995 56.4251 11.4129 55.9077 12.0888H55.8517C55.2497 10.7472 53.8374 9.86208 51.9977 9.86208L51.9984 9.86202ZM72.8604 9.86202C70.5124 9.86202 68.6485 10.4492 67.6314 10.9721L68.3761 13.2398C69.3052 12.7177 70.787 12.2854 72.1884 12.2854C74.5083 12.2801 74.8887 13.4543 74.8887 14.2074V14.3855C69.8309 14.3787 66.6354 15.9374 66.6354 19.1145C66.6354 21.0543 68.2628 22.8722 71.0926 22.8722C72.8322 22.8722 74.2888 22.2539 75.1599 21.2632H75.2458C75.2458 21.2632 75.8236 23.4148 79.0077 22.592C78.8402 21.6965 78.7865 20.7418 78.7865 19.5918V15.1651C78.7865 12.3436 77.4333 9.86207 72.8604 9.86207L72.8604 9.86202ZM88.6371 9.86202C87.1824 9.86202 85.5272 10.6982 84.8325 12.4908H84.7264V10.1429H81.3064V22.5919H85.2051V16.2172C85.2051 15.8733 85.2285 15.5735 85.2896 15.2985C85.578 13.9632 86.725 13.1096 88.3712 13.1096C88.8231 13.1096 89.1466 13.1531 89.4965 13.1981V9.93903C89.2031 9.88624 89.0024 9.8619 88.6373 9.8619L88.6371 9.86202ZM31.5435 16.5915V18.1445C31.5435 18.3743 31.521 18.6113 31.4495 18.8185C31.1571 19.6811 30.1536 20.4099 28.8992 20.4099C27.8534 20.4099 27.0226 19.8814 27.0226 18.7633C27.0226 17.0531 29.1368 16.5804 31.5436 16.5915H31.5435ZM75.0111 16.5915V18.1445C75.0111 18.3743 74.9882 18.6113 74.9172 18.8185C74.6247 19.6811 73.6216 20.4099 72.3672 20.4099C71.3212 20.4099 70.4903 19.8814 70.4903 18.7633C70.4903 17.0531 72.6044 16.5804 75.0112 16.5915H75.0111Z" fill="#B3B7BC"/>
<path d="M118.51 0.0279541C117.29 0.0279541 116.321 0.634624 116.321 1.37318L117.062 8.84387C117.143 9.29397 117.763 9.64115 118.511 9.64115C119.261 9.64028 119.878 9.2934 119.962 8.84387L120.706 1.37318C120.706 0.634687 119.734 0.0280175 118.512 0.0280175L118.51 0.0279541ZM106.436 6.02059C105.803 6.03397 105.083 6.46098 104.626 7.16758C104.014 8.10847 104.122 9.15994 104.838 9.52882L112.473 12.6951C112.95 12.853 113.598 12.5514 113.973 11.9755C113.973 11.9755 113.973 11.9753 113.973 11.9752C114.35 11.3965 114.321 10.7458 113.924 10.4571L107.028 6.15016C106.849 6.05779 106.648 6.01622 106.437 6.02068L106.436 6.02059ZM130.585 6.02059C130.373 6.01613 130.172 6.0577 129.994 6.15006L123.097 10.4571C122.702 10.7457 122.673 11.3964 123.048 11.9751L123.048 11.9754C123.425 12.5513 124.071 12.8529 124.548 12.695L132.186 9.52889C132.905 9.16001 133.008 8.10859 132.4 7.16764C131.941 6.46103 131.22 6.03404 130.587 6.02066L130.585 6.02059ZM112.759 15.8771C112.66 15.8759 112.564 15.8895 112.474 15.9195L104.839 19.082C104.123 19.4525 104.015 20.5043 104.627 21.4462C105.237 22.3853 106.313 22.8317 107.029 22.4635L113.925 18.1598C114.322 17.8676 114.351 17.2171 113.974 16.639L113.978 16.6402C113.673 16.1693 113.187 15.8822 112.759 15.877L112.759 15.8771ZM124.265 15.8771C123.838 15.8823 123.353 16.1694 123.047 16.6403L123.05 16.6391C122.675 17.2172 122.704 17.8677 123.098 18.1599L129.995 22.4636C130.71 22.8318 131.787 22.3854 132.4 21.4463C133.008 20.5044 132.905 19.4526 132.186 19.0821L124.549 15.9196C124.46 15.8896 124.364 15.876 124.265 15.8772L124.265 15.8771ZM118.509 18.9733C117.762 18.9741 117.144 19.3198 117.063 19.7687L116.322 27.2391C116.322 27.9789 117.291 28.5843 118.511 28.5843C119.734 28.5843 120.705 27.9788 120.705 27.2391L119.963 19.7687C119.879 19.3198 119.262 18.9741 118.512 18.9733H118.509H118.509Z" fill="#B3B7BC"/>
</svg>
